<svg width="48" height="48" viewBox="0 0 48 48" fill="none" xmlns="http://www.w3.org/2000/svg">
<g clip-path="url(#clip0_3055_2449)">
<path fill-rule="evenodd" clip-rule="evenodd" d="M7.69235 7.69235C12.0174 3.36729 17.8834 0.9375 24 0.9375C30.1166 0.9375 35.9826 3.36729 40.3077 7.69235C44.6327 12.0174 47.0625 17.8834 47.0625 24C47.0625 30.1166 44.6327 35.9826 40.3077 40.3077C35.9826 44.6327 30.1166 47.0625 24 47.0625C17.8834 47.0625 12.0174 44.6327 7.69235 40.3077C3.36729 35.9826 0.9375 30.1166 0.9375 24C0.9375 17.8834 3.36729 12.0174 7.69235 7.69235ZM24 3.9375C18.6791 3.9375 13.5761 6.05122 9.81367 9.81367C6.05122 13.5761 3.9375 18.6791 3.9375 24C3.9375 29.3209 6.05122 34.4239 9.81367 38.1863C13.5761 41.9488 18.6791 44.0625 24 44.0625C29.3209 44.0625 34.4239 41.9488 38.1863 38.1863C41.9488 34.4239 44.0625 29.3209 44.0625 24C44.0625 18.6791 41.9488 13.5761 38.1863 9.81367C34.4239 6.05122 29.3209 3.9375 24 3.9375Z" fill="#626D79" style="fill:#626D79;fill:color(display-p3 0.3843 0.4275 0.4745);fill-opacity:1;"/>
<path fill-rule="evenodd" clip-rule="evenodd" d="M20.82 1.7057C21.489 2.19425 21.6353 3.13266 21.1468 3.8017C18.4106 7.54863 16.3945 15.2788 16.3945 24.0963C16.3945 32.8994 18.4053 40.4533 21.1563 44.3083C21.6376 44.9826 21.481 45.9193 20.8067 46.4006C20.1324 46.8818 19.1956 46.7253 18.7144 46.0509C15.4471 41.4725 13.3945 33.1948 13.3945 24.0963C13.3945 15.012 15.4418 6.52723 18.724 2.03249C19.2125 1.36346 20.1509 1.21715 20.82 1.7057Z" fill="#626D79" style="fill:#626D79;fill:color(display-p3 0.3843 0.4275 0.4745);fill-opacity:1;"/>
<path fill-rule="evenodd" clip-rule="evenodd" d="M27.178 1.7057C27.8471 1.21715 28.7855 1.36346 29.274 2.03249C32.5562 6.52723 34.6035 15.012 34.6035 24.0963C34.6035 33.1948 32.5509 41.4725 29.2836 46.0509C28.8024 46.7253 27.8656 46.8818 27.1913 46.4006C26.517 45.9193 26.3604 44.9826 26.8416 44.3083C29.5927 40.4533 31.6035 32.8994 31.6035 24.0963C31.6035 15.2788 29.5874 7.54863 26.8512 3.8017C26.3627 3.13266 26.509 2.19425 27.178 1.7057Z" fill="#626D79" style="fill:#626D79;fill:color(display-p3 0.3843 0.4275 0.4745);fill-opacity:1;"/>
<path fill-rule="evenodd" clip-rule="evenodd" d="M0.9375 24C0.9375 23.1716 1.60907 22.5 2.4375 22.5H45.5625C46.3909 22.5 47.0625 23.1716 47.0625 24C47.0625 24.8284 46.3909 25.5 45.5625 25.5H2.4375C1.60907 25.5 0.9375 24.8284 0.9375 24Z" fill="#626D79" style="fill:#626D79;fill:color(display-p3 0.3843 0.4275 0.4745);fill-opacity:1;"/>
<path fill-rule="evenodd" clip-rule="evenodd" d="M3.42969 34.0625C3.42969 33.2341 4.10126 32.5625 4.92969 32.5625H43.0714C43.8998 32.5625 44.5714 33.2341 44.5714 34.0625C44.5714 34.8909 43.8998 35.5625 43.0714 35.5625H4.92969C4.10126 35.5625 3.42969 34.8909 3.42969 34.0625Z" fill="#626D79" style="fill:#626D79;fill:color(display-p3 0.3843 0.4275 0.4745);fill-opacity:1;"/>
<path fill-rule="evenodd" clip-rule="evenodd" d="M3.42969 13.9375C3.42969 13.1091 4.10126 12.4375 4.92969 12.4375H43.0714C43.8998 12.4375 44.5714 13.1091 44.5714 13.9375C44.5714 14.7659 43.8998 15.4375 43.0714 15.4375H4.92969C4.10126 15.4375 3.42969 14.7659 3.42969 13.9375Z" fill="#626D79" style="fill:#626D79;fill:color(display-p3 0.3843 0.4275 0.4745);fill-opacity:1;"/>
</g>
<defs>
<clipPath id="clip0_3055_2449">
<rect width="48" height="48" fill="white" style="fill:white;fill-opacity:1;"/>
</clipPath>
</defs>
</svg>
