<svg width="48" height="48" viewBox="0 0 48 48" fill="none" xmlns="http://www.w3.org/2000/svg">
<path d="M21.3052 35.1478L16.5102 39.9428C15.58 40.8267 14.3459 41.3195 13.0627 41.3195C11.7795 41.3195 10.5454 40.8267 9.6152 39.9428L8.0577 38.3853C7.59612 37.9279 7.23123 37.3823 6.98471 36.7811C6.73819 36.1798 6.61508 35.5351 6.6227 34.8853C6.61206 34.2351 6.73378 33.5895 6.98048 32.9878C7.22717 32.3861 7.59367 31.8409 8.0577 31.3853L18.2077 21.2178C19.1252 20.3094 20.3641 19.7999 21.6552 19.7999C22.9463 19.7999 24.1852 20.3094 25.1027 21.2178L26.6602 22.7928C26.785 23.0304 26.9628 23.2362 27.1798 23.3941C27.3968 23.5521 27.6472 23.658 27.9117 23.7037C28.1761 23.7493 28.4476 23.7336 28.705 23.6576C28.9624 23.5816 29.1989 23.4474 29.3962 23.2654C29.5934 23.0835 29.7462 22.8585 29.8427 22.6081C29.9391 22.3576 29.9767 22.0883 29.9524 21.821C29.9281 21.5537 29.8427 21.2956 29.7028 21.0666C29.5628 20.8376 29.372 20.6438 29.1452 20.5003L27.5877 18.9428C26.016 17.373 23.8854 16.4912 21.664 16.4912C19.4425 16.4912 17.3119 17.373 15.7402 18.9428L5.5727 29.0928C4.00286 30.6646 3.12109 32.7951 3.12109 35.0166C3.12109 37.238 4.00286 39.3686 5.5727 40.9403L7.1302 42.4978C7.9076 43.2799 8.83195 43.9005 9.85007 44.324C10.8682 44.7475 11.96 44.9655 13.0627 44.9655C14.1654 44.9655 15.2572 44.7475 16.2753 44.324C17.2935 43.9005 18.2178 43.2799 18.9952 42.4978L23.7727 37.7203C23.9367 37.5576 24.0669 37.3641 24.1558 37.1508C24.2446 36.9376 24.2903 36.7088 24.2903 36.4778C24.2903 36.2468 24.2446 36.0181 24.1558 35.8048C24.0669 35.5916 23.9367 35.398 23.7727 35.2353C23.4565 34.8975 23.0194 34.6986 22.557 34.6822C22.0946 34.6658 21.6445 34.8332 21.3052 35.1478Z" fill="#6E6E6E"/>
<path d="M42.4278 7.12983L40.8528 5.57233C39.2788 4.00676 37.1491 3.12793 34.9291 3.12793C32.7091 3.12793 30.5793 4.00676 29.0053 5.57233L24.0003 10.6648C23.8171 10.8217 23.6683 11.0148 23.5633 11.2319C23.4583 11.449 23.3992 11.6855 23.3899 11.9265C23.3806 12.1675 23.4212 12.4078 23.5092 12.6324C23.5972 12.857 23.7306 13.0609 23.9012 13.2315C24.0717 13.402 24.2757 13.5355 24.5003 13.6234C24.7248 13.7114 24.9652 13.752 25.2062 13.7427C25.4472 13.7334 25.6837 13.6744 25.9008 13.5693C26.1179 13.4643 26.3109 13.3155 26.4678 13.1323L31.5603 8.05733C32.4756 7.14471 33.7153 6.63222 35.0078 6.63222C36.3003 6.63222 37.5401 7.14471 38.4553 8.05733L40.0128 9.63233C40.4768 10.0879 40.8434 10.6331 41.09 11.2348C41.3367 11.8365 41.4585 12.4821 41.4478 13.1323C41.4554 13.7821 41.3323 14.4268 41.0858 15.0281C40.8393 15.6293 40.4744 16.1749 40.0128 16.6323L29.8628 26.7823C29.4054 27.2439 28.8598 27.6088 28.2586 27.8553C27.6573 28.1018 27.0126 28.2249 26.3628 28.2173C25.7127 28.227 25.0675 28.1048 24.4659 27.8581C23.8644 27.6115 23.319 27.2455 22.8628 26.7823C22.5342 26.6133 22.1604 26.5527 21.7952 26.6091C21.43 26.6656 21.092 26.8362 20.8297 27.0966C20.5674 27.3569 20.3942 27.6936 20.3351 28.0584C20.2759 28.4232 20.3338 28.7974 20.5003 29.1273C21.2766 29.9109 22.2007 30.5325 23.2191 30.9561C24.2375 31.3797 25.3299 31.5968 26.4328 31.5948C27.5318 31.5977 28.6204 31.3827 29.6357 30.9621C30.651 30.5416 31.5728 29.9239 32.3478 29.1448L42.5153 18.9773C44.0852 17.4056 44.9669 15.275 44.9669 13.0536C44.9669 10.8322 44.0852 8.70156 42.5153 7.12983H42.4278Z" fill="#6E6E6E"/>
</svg>
