<svg xmlns="http://www.w3.org/2000/svg" viewBox="0 0 48 48" height="48" width="48" id="Hyperlink-3--Streamline-Ultimate.svg"><desc>Hyperlink 3 Streamline Icon: https://streamlinehq.com</desc><g id="Hyperlink-3--Streamline-Ultimate.svg"><path d="m20.92 36.74 -5.48 5.48a5.72 5.72 0 0 1 -7.88 0l-1.78 -1.78a5.54 5.54 0 0 1 -1.64 -4 5.48 5.48 0 0 1 1.64 -4l11.6 -11.62a5.6 5.6 0 0 1 7.88 0l1.78 1.8A2 2 0 1 0 29.88 20l-1.78 -1.78a9.58 9.58 0 0 0 -13.54 0l-11.62 11.6a9.58 9.58 0 0 0 0 13.54l1.78 1.78a9.56 9.56 0 0 0 13.56 0l5.46 -5.46a2 2 0 0 0 0 -2.84 2 2 0 0 0 -2.82 -0.1Z" fill="#6e6e6e" stroke-width="1"></path><path d="m45.06 4.72 -1.8 -1.78a9.6 9.6 0 0 0 -13.54 0L24 8.76a2 2 0 1 0 2.82 2.82l5.82 -5.8a5.58 5.58 0 0 1 7.88 0l1.78 1.8a5.48 5.48 0 0 1 1.64 4 5.54 5.54 0 0 1 -1.64 4l-11.6 11.6a5.54 5.54 0 0 1 -4 1.64 5.5 5.5 0 0 1 -4 -1.64A2 2 0 0 0 20 29.86a9.52 9.52 0 0 0 6.78 2.82 9.5 9.5 0 0 0 6.76 -2.8l11.62 -11.62a9.58 9.58 0 0 0 0 -13.54Z" fill="#6e6e6e" stroke-width="1"></path></g></svg>