<svg width="20" height="20" viewBox="0 0 20 20" fill="none" xmlns="http://www.w3.org/2000/svg">
<path d="M10 12.4C12.3196 12.4 14.2 10.5196 14.2 8.2C14.2 5.8804 12.3196 4 10 4C7.6804 4 5.8 5.8804 5.8 8.2C5.8 10.5196 7.6804 12.4 10 12.4Z" stroke="black" stroke-width="1.5" stroke-linecap="round" stroke-linejoin="round"/>
<path d="M15.5304 17.1008C14.8058 16.3716 13.9441 15.793 12.995 15.3981C12.0459 15.0032 11.028 14.7999 10 14.7999C8.97201 14.7999 7.95416 15.0032 7.00503 15.3981C6.0559 15.793 5.19423 16.3716 4.4696 17.1008" stroke="black" stroke-width="1.5" stroke-linecap="round" stroke-linejoin="round"/>
<path d="M10 19C14.9706 19 19 14.9706 19 10C19 5.02944 14.9706 1 10 1C5.02944 1 1 5.02944 1 10C1 14.9706 5.02944 19 10 19Z" stroke="black" stroke-width="1.5" stroke-linecap="round" stroke-linejoin="round"/>
</svg>
