<svg width="24" height="25" viewBox="0 0 24 25" xmlns="http://www.w3.org/2000/svg"><title>portal-icon-04</title><g stroke="#000" fill="none" fill-rule="evenodd"><path stroke-opacity=".012" stroke-width="0" d="M0 1h24v24H0z"/><g stroke-linecap="round" stroke-linejoin="round" stroke-width="1.5"><path d="M14.625 14.125c0 2.25-1.125 3.375-3.375 3.375s-3.375-1.125-3.375-3.375S9 10.75 11.25 10.75s3.375 1.125 3.375 3.375zM12.414 19.112c-.384-.075-.772-.112-1.164-.112-3.534-.003-5.534 1.747-6 5.25M14.25 21.25h3"/><path d="M9.75 4.75h-4.5c-.414 0-.768.146-1.06.44-.294.292-.44.646-.44 1.06v16.5c0 1 .5 1.5 1.5 1.5h13.5c1 0 1.5-.5 1.5-1.5V6.25c0-1-.5-1.5-1.5-1.5h-4.5"/><path d="M14.25 4c0-.866-.375-1.516-1.125-1.949-.75-.433-1.5-.433-2.25 0S9.75 3.134 9.75 4v3c0 .5.25.75.75.75h3c.5 0 .75-.25.75-.75V4z"/></g></g></svg>