<svg width="24" height="24" viewBox="0 0 24 24" xmlns="http://www.w3.org/2000/svg"><title>portal-icon-03</title><g stroke="#000" fill="none" fill-rule="evenodd"><path stroke-opacity=".012" stroke-width="0" d="M0 0h24v24H0z"/><g stroke-linecap="round" stroke-linejoin="round" stroke-width="1.5"><path d="M10.875 8.625c0 1.75-.875 2.625-2.625 2.625s-2.625-.875-2.625-2.625S6.5 6 8.25 6s2.625.875 2.625 2.625zM3.75 16.5c0-1.732.75-3.031 2.25-3.897 1.5-.866 3-.866 4.5 0s2.25 2.165 2.25 3.897h-9zM14.25 9h4.5M14.25 12h6"/><path d="M21.75 3H2.25c-.414 0-.768.146-1.06.44-.294.292-.44.646-.44 1.06v15c0 1 .5 1.5 1.5 1.5h3c0-.577.25-1.01.75-1.299.5-.289 1-.289 1.5 0s.75.722.75 1.299h7.5c0-.577.25-1.01.75-1.299.5-.289 1-.289 1.5 0s.75.722.75 1.299h3c1 0 1.5-.5 1.5-1.5v-15c0-1-.5-1.5-1.5-1.5z"/></g></g></svg>