<svg width="17" height="23" viewBox="0 0 17 23" fill="none" xmlns="http://www.w3.org/2000/svg">
<path d="M7.83335 15.35C9.53162 15.35 10.9083 13.9733 10.9083 12.275C10.9083 10.5767 9.53162 9.2 7.83335 9.2C6.13507 9.2 4.75835 10.5767 4.75835 12.275C4.75835 13.9733 6.13507 15.35 7.83335 15.35Z" stroke="black" stroke-width="1.5" stroke-linecap="round" stroke-linejoin="round"/>
<path d="M8.89385 16.8187C8.5444 16.7509 8.18928 16.7168 7.83332 16.7167C6.49699 16.7154 5.20575 17.1999 4.20006 18.0798C3.19436 18.9598 2.54278 20.1753 2.36665 21.5" stroke="black" stroke-width="1.5" stroke-linecap="round" stroke-linejoin="round"/>
<path d="M10.5667 18.7667H13.3" stroke="black" stroke-width="1.5" stroke-linecap="round" stroke-linejoin="round"/>
<path d="M6.46667 3.73334H2.36667C2.0042 3.73334 1.65659 3.87732 1.40029 4.13362C1.14399 4.38992 1 4.73754 1 5.1V20.1333C1 20.4958 1.14399 20.8434 1.40029 21.0997C1.65659 21.356 2.0042 21.5 2.36667 21.5H14.6667C15.0291 21.5 15.3767 21.356 15.633 21.0997C15.8893 20.8434 16.0333 20.4958 16.0333 20.1333V5.1C16.0333 4.73754 15.8893 4.38992 15.633 4.13362C15.3767 3.87732 15.0291 3.73334 14.6667 3.73334H10.5667" stroke="black" stroke-width="1.5" stroke-linecap="round" stroke-linejoin="round"/>
<path d="M10.5667 3.05C10.5667 2.50631 10.3507 1.98488 9.96624 1.60043C9.58179 1.21598 9.06036 1 8.51667 1C7.97298 1 7.45155 1.21598 7.0671 1.60043C6.68265 1.98488 6.46667 2.50631 6.46667 3.05V5.78333C6.46667 5.96456 6.53867 6.13837 6.66682 6.26652C6.79496 6.39467 6.96877 6.46667 7.15 6.46667H9.88334C10.0646 6.46667 10.2384 6.39467 10.3665 6.26652C10.4947 6.13837 10.5667 5.96456 10.5667 5.78333V3.05Z" stroke="black" stroke-width="1.5" stroke-linecap="round" stroke-linejoin="round"/>
</svg>
