<svg width="23" height="19" viewBox="0 0 23 19" fill="none" xmlns="http://www.w3.org/2000/svg">
<path d="M8.08331 8.79167C9.45252 8.79167 10.5625 7.68171 10.5625 6.3125C10.5625 4.9433 9.45252 3.83334 8.08331 3.83334C6.71411 3.83334 5.60415 4.9433 5.60415 6.3125C5.60415 7.68171 6.71411 8.79167 8.08331 8.79167Z" stroke="black" stroke-width="1.5" stroke-linecap="round" stroke-linejoin="round"/>
<path d="M3.83335 13.75C3.83335 12.6228 4.28112 11.5418 5.07815 10.7448C5.87518 9.94777 6.95618 9.5 8.08335 9.5C9.21052 9.5 10.2915 9.94777 11.0886 10.7448C11.8856 11.5418 12.3334 12.6228 12.3334 13.75H3.83335Z" stroke="black" stroke-width="1.5" stroke-linecap="round" stroke-linejoin="round"/>
<path d="M13.75 6.66666H18" stroke="black" stroke-width="1.5" stroke-linecap="round" stroke-linejoin="round"/>
<path d="M13.75 9.5H19.4167" stroke="black" stroke-width="1.5" stroke-linecap="round" stroke-linejoin="round"/>
<path d="M20.8333 1H2.41667C2.04094 1 1.68061 1.14926 1.41493 1.41493C1.14926 1.68061 1 2.04094 1 2.41667V16.5833C1 16.9591 1.14926 17.3194 1.41493 17.5851C1.68061 17.8507 2.04094 18 2.41667 18H5.25C5.25 17.6243 5.39926 17.2639 5.66493 16.9983C5.93061 16.7326 6.29094 16.5833 6.66667 16.5833C7.04239 16.5833 7.40272 16.7326 7.6684 16.9983C7.93408 17.2639 8.08333 17.6243 8.08333 18H15.1667C15.1667 17.6243 15.3159 17.2639 15.5816 16.9983C15.8473 16.7326 16.2076 16.5833 16.5833 16.5833C16.9591 16.5833 17.3194 16.7326 17.5851 16.9983C17.8507 17.2639 18 17.6243 18 18H20.8333C21.2091 18 21.5694 17.8507 21.8351 17.5851C22.1007 17.3194 22.25 16.9591 22.25 16.5833V2.41667C22.25 2.04094 22.1007 1.68061 21.8351 1.41493C21.5694 1.14926 21.2091 1 20.8333 1Z" stroke="black" stroke-width="1.5" stroke-linecap="round" stroke-linejoin="round"/>
</svg>
