<svg width="24" height="24" viewBox="0 0 24 24" xmlns="http://www.w3.org/2000/svg"><title>portal-icon-01</title><g stroke="#000" fill="none" fill-rule="evenodd"><path stroke-opacity=".012" stroke-width="0" d="M0 0h24v24H0z"/><g stroke-linecap="round" stroke-linejoin="round" stroke-width="1.5"><path d="M17.25 6c0 1.45-.513 2.687-1.538 3.712C14.687 10.737 13.45 11.25 12 11.25c-1.45 0-2.687-.513-3.712-1.538C7.263 8.687 6.75 7.45 6.75 6c0-1.45.513-2.687 1.538-3.712C9.313 1.263 10.55.75 12 .75c1.45 0 2.687.513 3.712 1.538C16.737 3.313 17.25 4.55 17.25 6zM2.25 23.25c0-2.692.953-4.99 2.857-6.892C7.01 14.455 9.308 13.503 12 13.503s4.99.952 6.893 2.855c1.904 1.903 2.856 4.2 2.857 6.892"/></g></g></svg>