<svg width="24" height="24" viewBox="0 0 24 24" xmlns="http://www.w3.org/2000/svg"><title>portal-icon-02</title><g stroke="#000" fill="none" fill-rule="evenodd"><path stroke-opacity=".012" stroke-width="0" d="M0 0h24v24H0z"/><g stroke-linecap="round" stroke-linejoin="round" stroke-width="1.5"><path d="M17.25 9.75c0 1.45-.513 2.687-1.538 3.712C14.687 14.487 13.45 15 12 15c-1.45 0-2.687-.513-3.712-1.538C7.263 12.437 6.75 11.2 6.75 9.75c0-1.45.513-2.687 1.538-3.712C9.313 5.013 10.55 4.5 12 4.5c1.45 0 2.687.513 3.712 1.538C16.737 7.063 17.25 8.3 17.25 9.75zM18.913 20.876C17.008 18.959 14.703 18 12 18c-2.703 0-5.008.959-6.913 2.876"/><path d="M23.25 12c0 3.107-1.098 5.758-3.295 7.955S15.107 23.25 12 23.25s-5.758-1.098-7.955-3.295S.75 15.107.75 12s1.098-5.758 3.295-7.955S8.893.75 12 .75s5.758 1.098 7.955 3.295S23.25 8.893 23.25 12z"/></g></g></svg>